<svg xmlns="http://www.w3.org/2000/svg" viewBox="0 0 820 310">

  <!-- All three boxes: same width (210), same height (200), 60px gap between them for arrows -->

  <!-- Daily /morning -->
  <rect x="20" y="20" width="210" height="200" rx="8" fill="#C9E4CA" stroke="#5C8A5E" stroke-width="2"/>
  <text x="125" y="50" font-family="system-ui, -apple-system, sans-serif" font-size="15" font-weight="700" fill="#2D5F3A" text-anchor="middle">Daily /morning</text>
  <line x1="40" y1="62" x2="210" y2="62" stroke="#5C8A5E" stroke-width="1" opacity="0.3"/>
  <text x="40" y="90" font-family="system-ui, -apple-system, sans-serif" font-size="13" fill="#1a1a2e">Save plan to journal</text>
  <text x="40" y="116" font-family="system-ui, -apple-system, sans-serif" font-size="13" fill="#1a1a2e">Read yesterday&#x2019;s actuals</text>
  <text x="40" y="142" font-family="system-ui, -apple-system, sans-serif" font-size="13" fill="#1a1a2e">Persist memories</text>

  <!-- Arrow: Daily -> Weekly -->
  <line x1="230" y1="120" x2="268" y2="120" stroke="#6B7280" stroke-width="2"/>
  <polygon points="268,114 280,120 268,126" fill="#6B7280"/>
  <text x="255" y="108" font-family="system-ui, -apple-system, sans-serif" font-size="10" fill="#6B7280" text-anchor="middle" font-style="italic">patterns</text>

  <!-- Weekly /weekly -->
  <rect x="290" y="20" width="210" height="200" rx="8" fill="#B8D4E3" stroke="#4A7C9B" stroke-width="2"/>
  <text x="395" y="50" font-family="system-ui, -apple-system, sans-serif" font-size="15" font-weight="700" fill="#2D5F7A" text-anchor="middle">Weekly /weekly</text>
  <line x1="310" y1="62" x2="480" y2="62" stroke="#4A7C9B" stroke-width="1" opacity="0.3"/>
  <text x="310" y="90" font-family="system-ui, -apple-system, sans-serif" font-size="13" fill="#1a1a2e">Compile shipping summary</text>
  <text x="310" y="116" font-family="system-ui, -apple-system, sans-serif" font-size="13" fill="#1a1a2e">Detect plan-vs-actual</text>
  <text x="310" y="142" font-family="system-ui, -apple-system, sans-serif" font-size="13" fill="#1a1a2e">Review session prompts</text>
  <text x="310" y="168" font-family="system-ui, -apple-system, sans-serif" font-size="13" fill="#1a1a2e">Propose new skills</text>

  <!-- Arrow: Weekly -> Quarterly -->
  <line x1="500" y1="120" x2="538" y2="120" stroke="#6B7280" stroke-width="2"/>
  <polygon points="538,114 550,120 538,126" fill="#6B7280"/>
  <text x="525" y="108" font-family="system-ui, -apple-system, sans-serif" font-size="10" fill="#6B7280" text-anchor="middle" font-style="italic">strategy</text>

  <!-- Quarterly /quarterly -->
  <rect x="560" y="20" width="210" height="200" rx="8" fill="#D4A574" stroke="#B8956A" stroke-width="2"/>
  <text x="665" y="50" font-family="system-ui, -apple-system, sans-serif" font-size="15" font-weight="700" fill="#6B4226" text-anchor="middle">Quarterly /quarterly</text>
  <line x1="580" y1="62" x2="750" y2="62" stroke="#B8956A" stroke-width="1" opacity="0.3"/>
  <text x="580" y="90" font-family="system-ui, -apple-system, sans-serif" font-size="13" fill="#1a1a2e">Score OKRs 0.0 &#x2013; 1.0</text>
  <text x="580" y="116" font-family="system-ui, -apple-system, sans-serif" font-size="13" fill="#1a1a2e">Archive stale projects</text>
  <text x="580" y="142" font-family="system-ui, -apple-system, sans-serif" font-size="13" fill="#1a1a2e">Refresh GOALS.md</text>
  <text x="580" y="168" font-family="system-ui, -apple-system, sans-serif" font-size="13" fill="#1a1a2e">Audit system health</text>

  <!-- Return arrow: Quarterly -> Daily ("goals feed") -->
  <path d="M 665 220 L 665 260 Q 665 275 650 275 L 140 275 Q 125 275 125 260 L 125 226"
        fill="none" stroke="#6B7280" stroke-width="2"/>
  <polygon points="119,226 125,214 131,226" fill="#6B7280"/>
  <text x="395" y="290" font-family="system-ui, -apple-system, sans-serif" font-size="11" fill="#6B7280" text-anchor="middle" font-style="italic">goals feed</text>
</svg>
