<svg xmlns="http://www.w3.org/2000/svg" viewBox="0 0 700 420">
  <defs>
    <marker id="loop-arrow" viewBox="0 0 10 10" refX="9" refY="5" markerWidth="8" markerHeight="8" orient="auto-start-reverse">
      <path d="M 0 0 L 10 5 L 0 10 z" fill="#6B7280"/>
    </marker>
  </defs>

  <!-- Daily /morning box -->
  <rect x="20" y="20" width="200" height="170" rx="8" fill="#C9E4CA" stroke="#5C8A5E" stroke-width="2" opacity="0.9"/>
  <text x="120" y="48" font-family="system-ui, -apple-system, sans-serif" font-size="15" font-weight="700" fill="#2D5F3A" text-anchor="middle">Daily /morning</text>
  <line x1="40" y1="58" x2="200" y2="58" stroke="#5C8A5E" stroke-width="1" opacity="0.3"/>
  <text x="40" y="82" font-family="system-ui, -apple-system, sans-serif" font-size="13" fill="#1a1a2e">Save plan to journal</text>
  <text x="40" y="108" font-family="system-ui, -apple-system, sans-serif" font-size="13" fill="#1a1a2e">Read yesterday's actuals</text>
  <text x="40" y="134" font-family="system-ui, -apple-system, sans-serif" font-size="13" fill="#1a1a2e">Persist memories</text>

  <!-- Weekly /weekly box -->
  <rect x="250" y="20" width="210" height="195" rx="8" fill="#B8D4E3" stroke="#4A7C9B" stroke-width="2" opacity="0.9"/>
  <text x="355" y="48" font-family="system-ui, -apple-system, sans-serif" font-size="15" font-weight="700" fill="#2D5F7A" text-anchor="middle">Weekly /weekly</text>
  <line x1="270" y1="58" x2="440" y2="58" stroke="#4A7C9B" stroke-width="1" opacity="0.3"/>
  <text x="270" y="82" font-family="system-ui, -apple-system, sans-serif" font-size="13" fill="#1a1a2e">Compile shipping summary</text>
  <text x="270" y="108" font-family="system-ui, -apple-system, sans-serif" font-size="13" fill="#1a1a2e">Detect plan-vs-actual patterns</text>
  <text x="270" y="134" font-family="system-ui, -apple-system, sans-serif" font-size="13" fill="#1a1a2e">Review session prompts</text>
  <text x="270" y="160" font-family="system-ui, -apple-system, sans-serif" font-size="13" fill="#1a1a2e">Propose new skills/commands</text>

  <!-- Quarterly /quarterly box -->
  <rect x="490" y="20" width="195" height="195" rx="8" fill="#D4A574" stroke="#B8956A" stroke-width="2" opacity="0.9"/>
  <text x="587" y="48" font-family="system-ui, -apple-system, sans-serif" font-size="15" font-weight="700" fill="#6B4226" text-anchor="middle">Quarterly /quarterly</text>
  <line x1="510" y1="58" x2="665" y2="58" stroke="#B8956A" stroke-width="1" opacity="0.3"/>
  <text x="510" y="82" font-family="system-ui, -apple-system, sans-serif" font-size="13" fill="#1a1a2e">Score OKRs 0.0 to 1.0</text>
  <text x="510" y="108" font-family="system-ui, -apple-system, sans-serif" font-size="13" fill="#1a1a2e">Archive stale projects</text>
  <text x="510" y="134" font-family="system-ui, -apple-system, sans-serif" font-size="13" fill="#1a1a2e">Refresh GOALS.md</text>
  <text x="510" y="160" font-family="system-ui, -apple-system, sans-serif" font-size="13" fill="#1a1a2e">Audit system health</text>

  <!-- Cycle arrows -->
  <!-- Daily -> Weekly: "patterns feed" -->
  <path d="M 220 260 Q 350 280 460 260" fill="none" stroke="#6B7280" stroke-width="2" marker-end="url(#loop-arrow)"/>
  <rect x="280" y="265" width="100" height="22" rx="4" fill="white" opacity="0.85"/>
  <text x="330" y="281" font-family="system-ui, -apple-system, sans-serif" font-size="11" fill="#6B7280" text-anchor="middle" font-style="italic">patterns feed</text>

  <!-- Weekly -> Quarterly: "strategy feeds" -->
  <path d="M 460 310 Q 530 330 620 310" fill="none" stroke="#6B7280" stroke-width="2" marker-end="url(#loop-arrow)"/>
  <rect x="485" y="318" width="100" height="22" rx="4" fill="white" opacity="0.85"/>
  <text x="535" y="334" font-family="system-ui, -apple-system, sans-serif" font-size="11" fill="#6B7280" text-anchor="middle" font-style="italic">strategy feeds</text>

  <!-- Quarterly -> Daily: "goals feed" (wraps bottom) -->
  <path d="M 620 310 C 680 380 40 380 120 260" fill="none" stroke="#6B7280" stroke-width="2" marker-end="url(#loop-arrow)"/>
  <rect x="320" y="370" width="80" height="22" rx="4" fill="white" opacity="0.85"/>
  <text x="360" y="386" font-family="system-ui, -apple-system, sans-serif" font-size="11" fill="#6B7280" text-anchor="middle" font-style="italic">goals feed</text>

  <!-- Connector stubs from boxes down to arrows -->
  <line x1="120" y1="190" x2="120" y2="260" stroke="#6B7280" stroke-width="1.5" stroke-dasharray="4,3" opacity="0.4"/>
  <line x1="355" y1="215" x2="355" y2="270" stroke="#6B7280" stroke-width="1.5" stroke-dasharray="4,3" opacity="0.4"/>
  <line x1="587" y1="215" x2="587" y2="270" stroke="#6B7280" stroke-width="1.5" stroke-dasharray="4,3" opacity="0.4"/>

  <!-- Small circle connectors at arrow start points -->
  <circle cx="120" cy="260" r="4" fill="#5C8A5E"/>
  <circle cx="355" cy="270" r="4" fill="#4A7C9B"/>
  <circle cx="587" cy="270" r="4" fill="#B8956A"/>
</svg>
