<svg xmlns="http://www.w3.org/2000/svg" viewBox="0 0 700 300">

  <!-- Daily /morning box -->
  <rect x="20" y="20" width="200" height="170" rx="8" fill="#C9E4CA" stroke="#5C8A5E" stroke-width="2"/>
  <text x="120" y="48" font-family="system-ui, -apple-system, sans-serif" font-size="15" font-weight="700" fill="#2D5F3A" text-anchor="middle">Daily /morning</text>
  <line x1="40" y1="58" x2="200" y2="58" stroke="#5C8A5E" stroke-width="1" opacity="0.3"/>
  <text x="40" y="82" font-family="system-ui, -apple-system, sans-serif" font-size="13" fill="#1a1a2e">Save plan to journal</text>
  <text x="40" y="108" font-family="system-ui, -apple-system, sans-serif" font-size="13" fill="#1a1a2e">Read yesterday&#x2019;s actuals</text>
  <text x="40" y="134" font-family="system-ui, -apple-system, sans-serif" font-size="13" fill="#1a1a2e">Persist memories</text>

  <!-- Weekly /weekly box -->
  <rect x="250" y="20" width="210" height="195" rx="8" fill="#B8D4E3" stroke="#4A7C9B" stroke-width="2"/>
  <text x="355" y="48" font-family="system-ui, -apple-system, sans-serif" font-size="15" font-weight="700" fill="#2D5F7A" text-anchor="middle">Weekly /weekly</text>
  <line x1="270" y1="58" x2="440" y2="58" stroke="#4A7C9B" stroke-width="1" opacity="0.3"/>
  <text x="270" y="82" font-family="system-ui, -apple-system, sans-serif" font-size="13" fill="#1a1a2e">Compile shipping summary</text>
  <text x="270" y="108" font-family="system-ui, -apple-system, sans-serif" font-size="13" fill="#1a1a2e">Detect plan-vs-actual patterns</text>
  <text x="270" y="134" font-family="system-ui, -apple-system, sans-serif" font-size="13" fill="#1a1a2e">Review session prompts</text>
  <text x="270" y="160" font-family="system-ui, -apple-system, sans-serif" font-size="13" fill="#1a1a2e">Propose new skills/commands</text>

  <!-- Quarterly /quarterly box -->
  <rect x="490" y="20" width="195" height="195" rx="8" fill="#D4A574" stroke="#B8956A" stroke-width="2"/>
  <text x="587" y="48" font-family="system-ui, -apple-system, sans-serif" font-size="15" font-weight="700" fill="#6B4226" text-anchor="middle">Quarterly /quarterly</text>
  <line x1="510" y1="58" x2="665" y2="58" stroke="#B8956A" stroke-width="1" opacity="0.3"/>
  <text x="510" y="82" font-family="system-ui, -apple-system, sans-serif" font-size="13" fill="#1a1a2e">Score OKRs 0.0 to 1.0</text>
  <text x="510" y="108" font-family="system-ui, -apple-system, sans-serif" font-size="13" fill="#1a1a2e">Archive stale projects</text>
  <text x="510" y="134" font-family="system-ui, -apple-system, sans-serif" font-size="13" fill="#1a1a2e">Refresh GOALS.md</text>
  <text x="510" y="160" font-family="system-ui, -apple-system, sans-serif" font-size="13" fill="#1a1a2e">Audit system health</text>

  <!-- Arrow: Daily -> Weekly ("patterns feed") -->
  <line x1="220" y1="105" x2="244" y2="105" stroke="#6B7280" stroke-width="2"/>
  <polygon points="244,99 256,105 244,111" fill="#6B7280"/>
  <text x="238" y="96" font-family="system-ui, -apple-system, sans-serif" font-size="10" fill="#6B7280" text-anchor="middle" font-style="italic">patterns feed</text>

  <!-- Arrow: Weekly -> Quarterly ("strategy feeds") -->
  <line x1="460" y1="117" x2="484" y2="117" stroke="#6B7280" stroke-width="2"/>
  <polygon points="484,111 496,117 484,123" fill="#6B7280"/>
  <text x="478" y="108" font-family="system-ui, -apple-system, sans-serif" font-size="10" fill="#6B7280" text-anchor="middle" font-style="italic">strategy feeds</text>

  <!-- Return arrow: Quarterly -> Daily ("goals feed") -->
  <!-- Down from Quarterly bottom, across underneath, up into Daily bottom -->
  <path d="M 587 215 L 587 255 Q 587 270 572 270 L 128 270 Q 113 270 113 255 L 113 196"
        fill="none" stroke="#6B7280" stroke-width="2"/>
  <polygon points="107,196 113,184 119,196" fill="#6B7280"/>
  <text x="350" y="265" font-family="system-ui, -apple-system, sans-serif" font-size="11" fill="#6B7280" text-anchor="middle" font-style="italic">goals feed</text>
</svg>
